# xmcd
#
# Track frame offsets:
#	150
#	9075
#	17250
#	25197
#	36842
#	49575
#	62772
#	71177
#	86675
#	97110
#	112557
#	122237
#	129810
#	146085
#	161832
#
# Disc length: 2350 seconds
#
# Revision: 1
# Processed by: cddbd v1.5.1PL2 Copyright (c) Steve Scherf et al.
# Submitted via: audiograbber 1.83.01
#
DISCID=bb092c0f
DTITLE=Malcolm Scarpa and Ñaco Goñi - Berriz Blues Sessions
DYEAR=1997
DGENRE=Blues
TTITLE0=I'm through with you
TTITLE1=She's a hum dum dinger
TTITLE2=See that my grave is kept clean
TTITLE3=Good times
TTITLE4=District attorney
TTITLE5=Going away party
TTITLE6=Ida Red
TTITLE7=Black nights
TTITLE8=I smoke too much
TTITLE9=Honey, what you gonna do
TTITLE10=Early in the morning
TTITLE11=Joker stomp
TTITLE12=Polo blues
TTITLE13=Juke
TTITLE14=From Eibar to Durango
EXTD=
EXTT0=
EXTT1=
EXTT2=
EXTT3=
EXTT4=
EXTT5=
EXTT6=
EXTT7=
EXTT8=
EXTT9=
EXTT10=
EXTT11=
EXTT12=
EXTT13=
EXTT14=
PLAYORDER=
